<mxfile host="app.diagrams.net" modified="2021-05-03T04:11:55.784Z" agent="5.0 (Windows NT 10.0; Win64; x64) AppleWebKit/537.36 (KHTML, like Gecko) Chrome/90.0.4430.93 Safari/537.36 Edg/90.0.818.51" etag="MXNXLNBK6jl-4qYbniUa" version="14.6.9" type="github">
  <diagram name="Page-1" id="e7e014a7-5840-1c2e-5031-d8a46d1fe8dd">
    <mxGraphModel dx="850" dy="344" grid="1" gridSize="10" guides="1" tooltips="1" connect="1" arrows="1" fold="1" page="1" pageScale="1" pageWidth="1169" pageHeight="826" background="#ffffff" math="0" shadow="0">
      <root>
        <mxCell id="0" />
        <mxCell id="1" parent="0" />
        <mxCell id="j2aF4G_MLRKXlawfRITW-218" value="青青社团" style="rhombus;whiteSpace=wrap;html=1;" vertex="1" parent="1">
          <mxGeometry x="480" y="390" width="80" height="80" as="geometry" />
        </mxCell>
        <mxCell id="j2aF4G_MLRKXlawfRITW-220" value="基础功能" style="ellipse;whiteSpace=wrap;html=1;" vertex="1" parent="1">
          <mxGeometry x="460" y="530" width="120" height="60" as="geometry" />
        </mxCell>
        <mxCell id="j2aF4G_MLRKXlawfRITW-225" value="登录" style="whiteSpace=wrap;html=1;" vertex="1" parent="1">
          <mxGeometry x="480" y="670" width="80" height="20" as="geometry" />
        </mxCell>
        <mxCell id="j2aF4G_MLRKXlawfRITW-227" style="edgeStyle=none;rounded=0;orthogonalLoop=1;jettySize=auto;html=1;exitX=0.5;exitY=1;exitDx=0;exitDy=0;" edge="1" parent="1" source="j2aF4G_MLRKXlawfRITW-220" target="j2aF4G_MLRKXlawfRITW-220">
          <mxGeometry relative="1" as="geometry" />
        </mxCell>
        <mxCell id="j2aF4G_MLRKXlawfRITW-228" style="edgeStyle=none;rounded=0;orthogonalLoop=1;jettySize=auto;html=1;exitX=1;exitY=0.5;exitDx=0;exitDy=0;" edge="1" parent="1" source="j2aF4G_MLRKXlawfRITW-220" target="j2aF4G_MLRKXlawfRITW-220">
          <mxGeometry relative="1" as="geometry" />
        </mxCell>
        <mxCell id="j2aF4G_MLRKXlawfRITW-229" style="edgeStyle=none;rounded=0;orthogonalLoop=1;jettySize=auto;html=1;exitX=0;exitY=0.5;exitDx=0;exitDy=0;" edge="1" parent="1" source="j2aF4G_MLRKXlawfRITW-220" target="j2aF4G_MLRKXlawfRITW-220">
          <mxGeometry relative="1" as="geometry" />
        </mxCell>
        <mxCell id="j2aF4G_MLRKXlawfRITW-230" value="" style="endArrow=none;html=1;" edge="1" parent="1" target="j2aF4G_MLRKXlawfRITW-233">
          <mxGeometry width="50" height="50" relative="1" as="geometry">
            <mxPoint x="410" y="670" as="sourcePoint" />
            <mxPoint x="520" y="590" as="targetPoint" />
          </mxGeometry>
        </mxCell>
        <mxCell id="j2aF4G_MLRKXlawfRITW-233" value="注册" style="rounded=0;whiteSpace=wrap;html=1;" vertex="1" parent="1">
          <mxGeometry x="360" y="670" width="80" height="20" as="geometry" />
        </mxCell>
        <mxCell id="j2aF4G_MLRKXlawfRITW-235" value="激活" style="rounded=0;whiteSpace=wrap;html=1;" vertex="1" parent="1">
          <mxGeometry x="600" y="670" width="80" height="20" as="geometry" />
        </mxCell>
        <mxCell id="j2aF4G_MLRKXlawfRITW-237" value="" style="endArrow=none;html=1;exitX=0.5;exitY=0;exitDx=0;exitDy=0;" edge="1" parent="1" source="j2aF4G_MLRKXlawfRITW-233">
          <mxGeometry width="50" height="50" relative="1" as="geometry">
            <mxPoint x="500" y="700" as="sourcePoint" />
            <mxPoint x="520" y="590" as="targetPoint" />
          </mxGeometry>
        </mxCell>
        <mxCell id="j2aF4G_MLRKXlawfRITW-238" value="" style="endArrow=none;html=1;exitX=0.5;exitY=0;exitDx=0;exitDy=0;entryX=0.5;entryY=1;entryDx=0;entryDy=0;" edge="1" parent="1" source="j2aF4G_MLRKXlawfRITW-235" target="j2aF4G_MLRKXlawfRITW-220">
          <mxGeometry width="50" height="50" relative="1" as="geometry">
            <mxPoint x="410" y="680" as="sourcePoint" />
            <mxPoint x="530" y="600" as="targetPoint" />
          </mxGeometry>
        </mxCell>
        <mxCell id="j2aF4G_MLRKXlawfRITW-239" value="" style="endArrow=none;html=1;exitX=0.5;exitY=0;exitDx=0;exitDy=0;" edge="1" parent="1" source="j2aF4G_MLRKXlawfRITW-225">
          <mxGeometry width="50" height="50" relative="1" as="geometry">
            <mxPoint x="420" y="690" as="sourcePoint" />
            <mxPoint x="520" y="590" as="targetPoint" />
          </mxGeometry>
        </mxCell>
        <mxCell id="j2aF4G_MLRKXlawfRITW-241" value="" style="endArrow=none;html=1;entryX=0.5;entryY=1;entryDx=0;entryDy=0;exitX=0.5;exitY=0;exitDx=0;exitDy=0;" edge="1" parent="1" source="j2aF4G_MLRKXlawfRITW-220" target="j2aF4G_MLRKXlawfRITW-218">
          <mxGeometry width="50" height="50" relative="1" as="geometry">
            <mxPoint x="360" y="570" as="sourcePoint" />
            <mxPoint x="410" y="520" as="targetPoint" />
          </mxGeometry>
        </mxCell>
      </root>
    </mxGraphModel>
  </diagram>
</mxfile>
